<svg width="41" height="46" viewBox="0 0 41 46" fill="none" xmlns="http://www.w3.org/2000/svg">
<path d="M39.1851 39.1852C38.2814 39.1852 37.4147 38.8262 36.7757 38.1872C36.1367 37.5482 35.7777 36.6815 35.7777 35.7778V34.0741C35.7763 32.9283 35.4869 31.8013 34.9362 30.7965C34.3854 29.7918 33.591 28.9416 32.6259 28.3241C34.1309 27.2203 35.3548 25.7774 36.1984 24.1125C37.042 22.4475 37.4815 20.6073 37.4814 18.7408V17.0371C37.4601 14.9208 36.8955 12.8456 35.8416 11.0103C36.3608 9.32927 36.5266 7.55905 36.3287 5.81087C36.1308 4.06269 35.5734 2.37435 34.6916 0.851956C34.546 0.590882 34.3326 0.373943 34.074 0.224017C33.8154 0.0740905 33.5211 -0.00326575 33.2221 0.000105675C31.2376 -0.0048838 29.2794 0.45478 27.5044 1.3423C25.7293 2.22983 24.1867 3.52056 22.9999 5.1112H17.8888C16.7021 3.52056 15.1595 2.22983 13.3844 1.3423C11.6094 0.45478 9.65121 -0.0048838 7.66665 0.000105675C7.36773 -0.00326575 7.07344 0.0740905 6.81482 0.224017C6.5562 0.373943 6.34282 0.590882 6.19721 0.851956C5.31538 2.37435 4.75799 4.06269 4.56008 5.81087C4.36218 7.55905 4.52803 9.32927 5.04721 11.0103C3.99331 12.8456 3.42866 14.9208 3.4074 17.0371V18.7408C3.40727 20.6073 3.84679 22.4475 4.69037 24.1125C5.53395 25.7774 6.75786 27.2203 8.26294 28.3241C7.29781 28.9416 6.50336 29.7918 5.95261 30.7965C5.40187 31.8013 5.1125 32.9283 5.1111 34.0741V35.7778C5.1111 36.6815 4.75211 37.5482 4.1131 38.1872C3.47408 38.8262 2.6074 39.1852 1.7037 39.1852C1.25185 39.1852 0.818508 39.3647 0.499002 39.6842C0.179497 40.0037 0 40.4371 0 40.8889C0 41.3407 0.179497 41.7741 0.499002 42.0936C0.818508 42.4131 1.25185 42.5926 1.7037 42.5926C3.50937 42.587 5.23948 41.8672 6.51629 40.5904C7.79309 39.3136 8.51288 37.5835 8.5185 35.7778V34.0741C8.5185 33.1704 8.87749 32.3037 9.5165 31.6647C10.1555 31.0257 11.0222 30.6667 11.9259 30.6667H14.4814V39.1852C14.4814 40.0889 14.1225 40.9556 13.4834 41.5946C12.8444 42.2336 11.9777 42.5926 11.074 42.5926C10.6222 42.5926 10.1889 42.7721 9.86935 43.0916C9.54985 43.4111 9.37035 43.8445 9.37035 44.2963C9.37035 44.7481 9.54985 45.1815 9.86935 45.501C10.1889 45.8205 10.6222 46 11.074 46C12.8797 45.9944 14.6098 45.2746 15.8866 43.9978C17.1634 42.721 17.8832 40.9909 17.8888 39.1852V30.6667H22.9999V39.1852C23.0056 40.9909 23.7254 42.721 25.0022 43.9978C26.279 45.2746 28.0091 45.9944 29.8147 46C30.2666 46 30.6999 45.8205 31.0194 45.501C31.339 45.1815 31.5184 44.7481 31.5184 44.2963C31.5184 43.8445 31.339 43.4111 31.0194 43.0916C30.6999 42.7721 30.2666 42.5926 29.8147 42.5926C28.911 42.5926 28.0444 42.2336 27.4054 41.5946C26.7663 40.9556 26.4073 40.0889 26.4073 39.1852V30.6667H28.9629C29.8666 30.6667 30.7333 31.0257 31.3723 31.6647C32.0113 32.3037 32.3703 33.1704 32.3703 34.0741V35.7778C32.3759 37.5835 33.0957 39.3136 34.3725 40.5904C35.6493 41.8672 37.3794 42.587 39.1851 42.5926C39.6369 42.5926 40.0703 42.4131 40.3898 42.0936C40.7093 41.7741 40.8888 41.3407 40.8888 40.8889C40.8888 40.4371 40.7093 40.0037 40.3898 39.6842C40.0703 39.3647 39.6369 39.1852 39.1851 39.1852ZM6.8148 18.7408V17.0371C6.8461 15.3338 7.35525 13.6735 8.28424 12.2454C8.46143 12.0155 8.57612 11.7437 8.61717 11.4564C8.65821 11.169 8.62422 10.876 8.5185 10.6056C8.07612 9.46375 7.86346 8.24577 7.89269 7.02154C7.92193 5.7973 8.19249 4.59087 8.68887 3.47139C10.0825 3.61633 11.4252 4.07479 12.6165 4.81242C13.8078 5.55004 14.8167 6.5477 15.5676 7.73064C15.7206 7.97076 15.9314 8.16868 16.1806 8.30633C16.4299 8.44398 16.7097 8.51696 16.9944 8.5186H23.8944C24.1791 8.51696 24.4589 8.44398 24.7082 8.30633C24.9574 8.16868 25.1682 7.97076 25.3212 7.73064C26.0721 6.5477 27.081 5.55004 28.2723 4.81242C29.4635 4.07479 30.8063 3.61633 32.1999 3.47139C32.6963 4.59087 32.9669 5.7973 32.9961 7.02154C33.0253 8.24577 32.8127 9.46375 32.3703 10.6056C32.2706 10.877 32.2397 11.1689 32.2806 11.4551C32.3215 11.7413 32.4328 12.0129 32.6046 12.2454C33.5335 13.6735 34.0427 15.3338 34.074 17.0371V18.7408C34.074 19.8595 33.8537 20.9672 33.4256 22.0007C32.9975 23.0342 32.37 23.9733 31.579 24.7643C30.788 25.5553 29.8489 26.1828 28.8154 26.6109C27.7819 27.039 26.6742 27.2593 25.5555 27.2593H15.3333C13.0741 27.2593 10.9073 26.3618 9.30981 24.7643C7.71228 23.1668 6.8148 21 6.8148 18.7408Z" fill="#3CD070"/>
<circle cx="15.2652" cy="14.72" r="1.63555" fill="#3CD070"/>
<circle cx="25.6236" cy="14.72" r="1.63555" fill="#3CD070"/>
</svg>
