<svg width="60" height="124" viewBox="0 0 60 124" fill="none" xmlns="http://www.w3.org/2000/svg">
<g clip-path="url(#clip0_309_5)">
<rect x="22.3662" y="79.4884" width="16.1797" height="24.2696" fill="black"/>
<path d="M18.1931 82.6225C20.9974 79.7086 23.8216 78.2169 26.6655 78.1476C25.0455 79.7878 23.9593 81.4372 23.4068 83.0958C22.8544 84.7544 22.611 86.9316 22.6767 89.6275C22.707 90.8717 23.2767 92.6586 24.3857 94.9882C25.4948 97.3177 26.6046 99.3731 27.7151 101.154C28.8256 102.935 29.3798 103.781 29.3776 103.693C29.4296 103.395 29.5017 103.008 29.5939 102.531C29.686 102.055 29.9306 101.145 30.3277 99.8011C30.7248 98.4576 31.1759 97.2016 31.681 96.0332C32.1861 94.8649 32.9045 93.632 33.8363 92.3347C34.7681 91.0374 35.7882 90.0195 36.8966 89.2811C37.8005 88.6662 38.2654 87.6693 38.2911 86.2903C38.3167 84.9113 38.0303 83.4955 37.4317 82.0427C36.8331 80.59 36.0884 79.2224 35.1975 77.9398C36.7972 77.9008 39.4461 79.5556 43.144 82.904C44.3861 84.0002 45.3132 85.2522 45.9256 86.6601C46.5379 88.0681 46.8578 89.3349 46.8852 90.4606C46.9314 92.3566 46.4537 94.3469 45.4522 96.4314C44.4506 98.516 43.0803 100.365 41.341 101.978C39.8633 103.378 38.6763 104.844 37.7799 106.378C36.8836 107.912 36.3185 109.356 36.0847 110.71C35.8509 112.065 35.7721 113.393 35.8483 114.695C35.9245 115.998 36.153 117.163 36.5337 118.191C36.9145 119.22 37.2923 120.129 37.6673 120.92C38.0423 121.712 38.383 122.311 38.6893 122.719L39.1499 123.374C38.7612 123.236 38.2448 123.026 37.6006 122.745C36.9565 122.464 35.7112 121.843 33.8647 120.88C32.0182 119.917 30.267 118.907 28.6109 117.851C26.9548 116.794 25.1429 115.423 23.175 113.737C21.2072 112.051 19.5792 110.319 18.2909 108.542C16.512 106.096 15.1353 103.424 14.1607 100.528C13.186 97.6324 12.715 95.0279 12.7476 92.715C12.778 91.5286 13.1751 90.185 13.9388 88.6843C14.7026 87.1836 15.4438 85.9724 16.1624 85.0508C16.881 84.1292 17.5579 83.3198 18.1931 82.6225Z" fill="white"/>
</g>
<path d="M36.3514 73.0603V87.3224H24.9418V78.7652H22.0894C19.8199 78.7652 17.6433 77.8636 16.0385 76.2588C14.4337 74.654 13.5321 72.4774 13.5321 70.2079V61.6507C13.5321 60.8942 13.8327 60.1686 14.3676 59.6337C14.9025 59.0988 15.628 58.7983 16.3845 58.7983C17.1411 58.7983 17.8666 59.0988 18.4015 59.6337C18.9364 60.1686 19.237 60.8942 19.237 61.6507V70.2079C19.237 71.8053 20.5205 73.0603 22.0894 73.0603H24.9418V44.5362C24.9418 43.0232 25.5428 41.5721 26.6127 40.5023C27.6826 39.4324 29.1336 38.8314 30.6466 38.8314C32.1596 38.8314 33.6107 39.4324 34.6805 40.5023C35.7504 41.5721 36.3514 43.0232 36.3514 44.5362V67.3555H39.2039C39.9604 67.3555 40.6859 67.055 41.2208 66.5201C41.7558 65.9851 42.0563 65.2596 42.0563 64.5031V58.7983C42.0563 58.0418 42.3568 57.3162 42.8917 56.7813C43.4267 56.2464 44.1522 55.9458 44.9087 55.9458C45.6652 55.9458 46.3907 56.2464 46.9257 56.7813C47.4606 57.3162 47.7611 58.0418 47.7611 58.7983V64.5031C47.7611 66.7726 46.8595 68.9492 45.2547 70.554C43.65 72.1588 41.4734 73.0603 39.2039 73.0603H36.3514Z" fill="white"/>
<rect x="31.7711" y="22.3574" width="15.9053" height="11.5568" fill="black"/>
<path d="M38.8969 32.1966C39.1044 32.1966 39.3053 32.1631 39.486 32.0962L39.1915 34.1511H37.431L38.4685 32.1497C38.6091 32.1832 38.7497 32.1966 38.8969 32.1966ZM10.7166 12.7046C11.56 12.7046 12.3766 12.805 13.1598 12.9857C14.5922 10.4154 17.3299 8.68169 20.4759 8.68169C20.9378 8.68169 21.3863 8.72185 21.8281 8.78879C24.1976 3.60789 29.4187 0.0133882 35.4765 0.0133882C42.9935 0.0133882 49.2186 5.54236 50.3096 12.7581C55.7382 13.2869 59.9753 17.8587 59.9753 23.4278C59.9753 29.3451 55.1826 34.1444 49.2654 34.1511H45.9186L45.035 32.3037C46.7888 31.7481 47.9334 30.3625 47.6523 29.0371C47.3444 27.5913 45.4567 26.768 43.4286 27.1964C41.8957 27.5244 40.7243 28.4749 40.3829 29.5459C40.2272 29.2933 40.0096 29.0845 39.7508 28.9393C39.492 28.7941 39.2004 28.7172 38.9036 28.7159H38.8902C38.9438 28.5017 38.9706 28.2808 38.9706 28.0532C38.9706 26.7077 37.9799 25.5966 36.688 25.4025V23.7023C36.688 23.4078 36.4471 23.1668 36.1525 23.1668C35.858 23.1668 35.617 23.4078 35.617 23.7023V25.4627C35.3091 25.5431 35.028 25.6769 34.7736 25.851L33.4684 24.4185C33.2676 24.1976 32.9329 24.1842 32.712 24.385C32.4911 24.5859 32.4777 24.9205 32.6785 25.1414L34.0172 26.614L34.0306 26.6274C33.7333 27.0966 33.5893 27.6466 33.6185 28.2013C33.6477 28.756 33.8487 29.2878 34.1936 29.7232C34.5385 30.1586 35.0103 30.4759 35.5436 30.6312C36.0768 30.7865 36.6452 30.7722 37.17 30.5901C37.1967 30.9649 37.344 31.3063 37.5716 31.5807L36.2329 34.1511H10.4421V34.1444C4.6521 33.9972 2.01266e-06 29.258 2.01266e-06 23.4278C2.01266e-06 17.504 4.79937 12.7046 10.7166 12.7046ZM41.6213 32.143L41.9091 34.1511H40.2758L40.6708 31.3732C40.905 31.6811 41.2263 31.9422 41.6213 32.143ZM10.8772 3.21296C10.8772 4.06509 10.5387 4.88232 9.93616 5.48487C9.33361 6.08742 8.51639 6.42592 7.66426 6.42592C6.81213 6.42592 5.9949 6.08742 5.39235 5.48487C4.78981 4.88232 4.4513 4.06509 4.4513 3.21296C4.4513 2.36083 4.78981 1.5436 5.39235 0.941054C5.9949 0.338507 6.81213 0 7.66426 0C8.51639 0 9.33361 0.338507 9.93616 0.941054C10.5387 1.5436 10.8772 2.36083 10.8772 3.21296ZM15.275 7.31618C15.275 7.52715 15.2334 7.73605 15.1527 7.93096C15.0719 8.12586 14.9536 8.30296 14.8044 8.45214C14.6553 8.60131 14.4782 8.71965 14.2833 8.80038C14.0883 8.88111 13.8795 8.92266 13.6685 8.92266C13.4575 8.92266 13.2486 8.88111 13.0537 8.80038C12.8588 8.71965 12.6817 8.60131 12.5325 8.45214C12.3833 8.30296 12.265 8.12586 12.1843 7.93096C12.1036 7.73605 12.062 7.52715 12.062 7.31618C12.062 7.10522 12.1036 6.89632 12.1843 6.70141C12.265 6.5065 12.3833 6.32941 12.5325 6.18023C12.6817 6.03105 12.8588 5.91272 13.0537 5.83199C13.2486 5.75125 13.4575 5.7097 13.6685 5.7097C13.8795 5.7097 14.0883 5.75125 14.2833 5.83199C14.4782 5.91272 14.6553 6.03105 14.8044 6.18023C14.9536 6.32941 15.0719 6.5065 15.1527 6.70141C15.2334 6.89632 15.275 7.10522 15.275 7.31618ZM43.9507 32.5246L44.7271 34.1511H42.9868L42.7525 32.4978C43.134 32.5513 43.5357 32.5647 43.9507 32.5246Z" fill="white"/>
<defs>
<clipPath id="clip0_309_5">
<rect width="34.229" height="45.5172" fill="white" transform="translate(47.6827 123.166) rotate(178.605)"/>
</clipPath>
</defs>
</svg>
