<svg width="49" height="100" viewBox="0 0 49 100" fill="none" xmlns="http://www.w3.org/2000/svg">
<g clip-path="url(#clip0_409_11)">
<rect x="18.0372" y="64.1035" width="13.0482" height="19.5723" fill="#BF0A30"/>
<path d="M14.6717 66.6311C16.9332 64.2811 19.2108 63.0781 21.5043 63.0223C20.1978 64.345 19.3218 65.6751 18.8763 67.0127C18.4308 68.3503 18.2345 70.1061 18.2875 72.2802C18.3119 73.2836 18.7714 74.7247 19.6657 76.6034C20.5601 78.482 21.4551 80.1396 22.3507 81.576C23.2463 83.0124 23.6932 83.6947 23.6915 83.6231C23.7334 83.383 23.7915 83.0708 23.8659 82.6865C23.9402 82.3022 24.1374 81.5683 24.4577 80.4848C24.7779 79.4012 25.1417 78.3884 25.549 77.4461C25.9564 76.5039 26.5357 75.5097 27.2872 74.4635C28.0386 73.4172 28.8613 72.5964 29.7552 72.0009C30.4841 71.505 30.859 70.701 30.8797 69.5889C30.9004 68.4768 30.6694 67.335 30.1867 66.1635C29.704 64.9919 29.1034 63.889 28.3849 62.8547C29.675 62.8232 31.8112 64.1577 34.7934 66.8581C35.7951 67.7421 36.5428 68.7518 37.0366 69.8872C37.5304 71.0226 37.7884 72.0442 37.8105 72.9521C37.8477 74.4811 37.4625 76.0862 36.6548 77.7673C35.8471 79.4483 34.742 80.9395 33.3394 82.2406C32.1477 83.3693 31.1904 84.552 30.4675 85.7888C29.7447 87.0255 29.2889 88.1901 29.1004 89.2823C28.9119 90.3746 28.8483 91.4459 28.9098 92.4962C28.9712 93.5466 29.1555 94.4863 29.4625 95.3155C29.7696 96.1447 30.0743 96.8784 30.3767 97.5165C30.6791 98.1545 30.9538 98.6379 31.2009 98.9665L31.5724 99.4954C31.2589 99.3835 30.8424 99.2143 30.3229 98.9879C29.8034 98.7615 28.7992 98.2601 27.3101 97.4836C25.821 96.7071 24.4087 95.8929 23.0731 95.0409C21.7376 94.1889 20.2764 93.0831 18.6894 91.7233C17.1024 90.3635 15.7895 88.9671 14.7506 87.5342C13.316 85.5611 12.2057 83.4068 11.4197 81.0713C10.6337 78.7358 10.2539 76.6354 10.2801 74.7702C10.3046 73.8134 10.6249 72.7298 11.2408 71.5196C11.8568 70.3093 12.4545 69.3326 13.0341 68.5893C13.6136 67.8461 14.1595 67.1934 14.6717 66.6311Z" fill="#CE5C17"/>
</g>
<path d="M29.3157 58.9196V70.4213H20.1143V63.5203H17.814C15.9838 63.5203 14.2285 62.7932 12.9343 61.499C11.6401 60.2049 10.913 58.4496 10.913 56.6193V49.7183C10.913 49.1082 11.1554 48.5231 11.5868 48.0917C12.0182 47.6603 12.6033 47.418 13.2133 47.418C13.8234 47.418 14.4085 47.6603 14.8399 48.0917C15.2713 48.5231 15.5137 49.1082 15.5137 49.7183V56.6193C15.5137 57.9075 16.5488 58.9196 17.814 58.9196H20.1143V35.9163C20.1143 34.6961 20.5991 33.5259 21.4619 32.6631C22.3246 31.8003 23.4948 31.3156 24.715 31.3156C25.9352 31.3156 27.1054 31.8003 27.9682 32.6631C28.831 33.5259 29.3157 34.6961 29.3157 35.9163V54.319H31.616C32.2261 54.319 32.8112 54.0766 33.2426 53.6452C33.674 53.2138 33.9164 52.6287 33.9164 52.0186V47.418C33.9164 46.8079 34.1587 46.2228 34.5901 45.7914C35.0215 45.36 35.6066 45.1176 36.2167 45.1176C36.8268 45.1176 37.4119 45.36 37.8433 45.7914C38.2747 46.2228 38.517 46.8079 38.517 47.418V52.0186C38.517 53.8489 37.79 55.6042 36.4958 56.8984C35.2016 58.1926 33.4463 58.9196 31.616 58.9196H29.3157Z" fill="#FFF000"/>
<rect x="25.6219" y="18.0302" width="12.8269" height="9.32" fill="#BF0A30"/>
<path d="M31.3685 25.965C31.5358 25.965 31.6978 25.938 31.8435 25.884L31.606 27.5412H30.1863L31.023 25.9272C31.1364 25.9542 31.2497 25.965 31.3685 25.965ZM8.6424 10.2456C9.32256 10.2456 9.98113 10.3266 10.6127 10.4724C11.7679 8.39948 13.9757 7.00137 16.5129 7.00137C16.8853 7.00137 17.247 7.03375 17.6033 7.08773C19.5142 2.90959 23.7248 0.0107969 28.6101 0.0107969C34.6721 0.0107969 39.6924 4.46965 40.5723 10.2888C44.9502 10.7153 48.3672 14.4022 48.3672 18.8934C48.3672 23.6654 44.5021 27.5358 39.7302 27.5412H37.0311L36.3186 26.0513C37.7329 25.6033 38.656 24.4859 38.4292 23.4171C38.1809 22.2511 36.6587 21.5871 35.023 21.9326C33.7869 22.1971 32.8422 22.9636 32.5669 23.8273C32.4413 23.6236 32.2658 23.4552 32.0571 23.3381C31.8484 23.221 31.6132 23.159 31.3739 23.1579H31.3631C31.4063 22.9852 31.4279 22.8071 31.4279 22.6235C31.4279 21.5385 30.629 20.6424 29.5871 20.4859V19.1147C29.5871 18.8772 29.3928 18.6829 29.1553 18.6829C28.9177 18.6829 28.7234 18.8772 28.7234 19.1147V20.5345C28.4751 20.5992 28.2484 20.7072 28.0433 20.8475L26.9906 19.6924C26.8287 19.5142 26.5588 19.5034 26.3806 19.6654C26.2025 19.8273 26.1917 20.0972 26.3536 20.2753L27.4333 21.4629L27.4441 21.4737C27.2043 21.8521 27.0881 22.2957 27.1117 22.743C27.1352 23.1903 27.2973 23.6192 27.5755 23.9703C27.8536 24.3214 28.2341 24.5773 28.6642 24.7026C29.0942 24.8278 29.5526 24.8163 29.9758 24.6694C29.9974 24.9717 30.1161 25.247 30.2997 25.4683L29.22 27.5412H8.42107V27.5358C3.7517 27.4171 1.86358e-06 23.5952 1.86358e-06 18.8934C1.86358e-06 14.1161 3.87046 10.2456 8.6424 10.2456ZM33.5655 25.9218L33.7977 27.5412H32.4805L32.799 25.301C32.9879 25.5493 33.247 25.7598 33.5655 25.9218ZM8.77195 2.5911C8.77195 3.2783 8.49896 3.93736 8.01303 4.42328C7.52711 4.90921 6.86806 5.1822 6.18085 5.1822C5.49365 5.1822 4.8346 4.90921 4.34867 4.42328C3.86275 3.93736 3.58975 3.2783 3.58975 2.5911C3.58975 1.9039 3.86275 1.24484 4.34867 0.758915C4.8346 0.27299 5.49365 0 6.18085 0C6.86806 0 7.52711 0.27299 8.01303 0.758915C8.49896 1.24484 8.77195 1.9039 8.77195 2.5911ZM12.3185 5.90015C12.3185 6.07028 12.285 6.23875 12.2199 6.39593C12.1548 6.55312 12.0594 6.69594 11.9391 6.81624C11.8188 6.93654 11.6759 7.03197 11.5188 7.09708C11.3616 7.16219 11.1931 7.1957 11.023 7.1957C10.8528 7.1957 10.6844 7.16219 10.5272 7.09708C10.37 7.03197 10.2272 6.93654 10.1069 6.81624C9.98657 6.69594 9.89115 6.55312 9.82604 6.39593C9.76093 6.23875 9.72742 6.07028 9.72742 5.90015C9.72742 5.73001 9.76093 5.56155 9.82604 5.40436C9.89115 5.24718 9.98657 5.10436 10.1069 4.98406C10.2272 4.86375 10.37 4.76832 10.5272 4.70322C10.6844 4.63811 10.8528 4.6046 11.023 4.6046C11.1931 4.6046 11.3616 4.63811 11.5188 4.70322C11.6759 4.76832 11.8188 4.86375 11.9391 4.98406C12.0594 5.10436 12.1548 5.24718 12.2199 5.40436C12.285 5.56155 12.3185 5.73001 12.3185 5.90015ZM35.4441 26.2295L36.0703 27.5412H34.6668L34.4778 26.2079C34.7855 26.2511 35.1094 26.2619 35.4441 26.2295Z" fill="#338EEF"/>
<defs>
<clipPath id="clip0_409_11">
<rect width="27.604" height="36.7075" fill="white" transform="translate(38.4538 99.3278) rotate(178.605)"/>
</clipPath>
</defs>
</svg>
