<svg width="18" height="20" viewBox="0 0 18 20" fill="none" xmlns="http://www.w3.org/2000/svg">
<path d="M17.037 17.037C16.6441 17.037 16.2673 16.881 15.9894 16.6031C15.7116 16.3253 15.5555 15.9485 15.5555 15.5556V14.8148C15.5549 14.3167 15.4291 13.8266 15.1896 13.3898C14.9502 12.953 14.6048 12.5833 14.1852 12.3148C14.8395 11.8349 15.3717 11.2076 15.7384 10.4837C16.1052 9.7598 16.2963 8.95968 16.2963 8.14818V7.40744C16.287 6.48733 16.0415 5.58502 15.5833 4.78707C15.809 4.0562 15.8811 3.28654 15.7951 2.52646C15.709 1.76639 15.4667 1.03232 15.0833 0.370415C15.02 0.256905 14.9272 0.162584 14.8148 0.0973986C14.7023 0.0322133 14.5744 -0.00141989 14.4444 4.59457e-05C13.5816 -0.00212339 12.7302 0.19773 11.9584 0.58361C11.1867 0.96949 10.516 1.53068 9.99998 2.22226H7.77776C7.26178 1.53068 6.59107 0.96949 5.81931 0.58361C5.04755 0.19773 4.19618 -0.00212339 3.33333 4.59457e-05C3.20336 -0.00141989 3.07541 0.0322133 2.96296 0.0973986C2.85052 0.162584 2.75775 0.256905 2.69444 0.370415C2.31103 1.03232 2.06869 1.76639 1.98264 2.52646C1.8966 3.28654 1.96871 4.0562 2.19444 4.78707C1.73622 5.58502 1.49072 6.48733 1.48148 7.40744V8.14818C1.48142 8.95968 1.67252 9.7598 2.03929 10.4837C2.40607 11.2076 2.9382 11.8349 3.59258 12.3148C3.17296 12.5833 2.82755 12.953 2.58809 13.3898C2.34864 13.8266 2.22283 14.3167 2.22222 14.8148V15.5556C2.22222 15.9485 2.06613 16.3253 1.7883 16.6031C1.51047 16.881 1.13365 17.037 0.740739 17.037C0.544283 17.037 0.355873 17.1151 0.216958 17.254C0.0780421 17.3929 0 17.5813 0 17.7778C0 17.9742 0.0780421 18.1626 0.216958 18.3016C0.355873 18.4405 0.544283 18.5185 0.740739 18.5185C1.52581 18.5161 2.27803 18.2031 2.83317 17.648C3.3883 17.0929 3.70125 16.3406 3.7037 15.5556V14.8148C3.7037 14.4219 3.85978 14.0451 4.13761 13.7673C4.41544 13.4894 4.79226 13.3333 5.18517 13.3333H6.29628V17.037C6.29628 17.43 6.1402 17.8068 5.86237 18.0846C5.58454 18.3624 5.20772 18.5185 4.8148 18.5185C4.61835 18.5185 4.42994 18.5966 4.29102 18.7355C4.15211 18.8744 4.07406 19.0628 4.07406 19.2593C4.07406 19.4557 4.15211 19.6441 4.29102 19.783C4.42994 19.922 4.61835 20 4.8148 20C5.59988 19.9976 6.3521 19.6846 6.90723 19.1295C7.46237 18.5743 7.77532 17.8221 7.77776 17.037V13.3333H9.99998V17.037C10.0024 17.8221 10.3154 18.5743 10.8705 19.1295C11.4256 19.6846 12.1779 19.9976 12.9629 20C13.1594 20 13.3478 19.922 13.4867 19.783C13.6256 19.6441 13.7037 19.4557 13.7037 19.2593C13.7037 19.0628 13.6256 18.8744 13.4867 18.7355C13.3478 18.5966 13.1594 18.5185 12.9629 18.5185C12.57 18.5185 12.1932 18.3624 11.9154 18.0846C11.6375 17.8068 11.4815 17.43 11.4815 17.037V13.3333H12.5926C12.9855 13.3333 13.3623 13.4894 13.6401 13.7673C13.918 14.0451 14.074 14.4219 14.074 14.8148V15.5556C14.0765 16.3406 14.3894 17.0929 14.9446 17.648C15.4997 18.2031 16.2519 18.5161 17.037 18.5185C17.2335 18.5185 17.4219 18.4405 17.5608 18.3016C17.6997 18.1626 17.7777 17.9742 17.7777 17.7778C17.7777 17.5813 17.6997 17.3929 17.5608 17.254C17.4219 17.1151 17.2335 17.037 17.037 17.037ZM2.96296 8.14818V7.40744C2.97656 6.66686 3.19794 5.94499 3.60184 5.32411C3.67888 5.22415 3.72875 5.10596 3.74659 4.98103C3.76444 4.8561 3.74966 4.72868 3.7037 4.61115C3.51136 4.11467 3.41889 3.58512 3.43161 3.05284C3.44432 2.52056 3.56195 1.99603 3.77777 1.5093C4.38369 1.57232 4.9675 1.77165 5.48544 2.09235C6.00338 2.41306 6.44202 2.84683 6.7685 3.36115C6.83504 3.46555 6.92669 3.5516 7.03506 3.61145C7.14343 3.67129 7.26508 3.70303 7.38887 3.70374H10.3889C10.5127 3.70303 10.6343 3.67129 10.7427 3.61145C10.851 3.5516 10.9427 3.46555 11.0092 3.36115C11.3357 2.84683 11.7744 2.41306 12.2923 2.09235C12.8102 1.77165 13.394 1.57232 14 1.5093C14.2158 1.99603 14.3334 2.52056 14.3461 3.05284C14.3588 3.58512 14.2664 4.11467 14.074 4.61115C14.0307 4.72913 14.0173 4.85603 14.0351 4.98047C14.0528 5.10491 14.1012 5.22299 14.1759 5.32411C14.5798 5.94499 14.8012 6.66686 14.8148 7.40744V8.14818C14.8148 8.63455 14.719 9.11617 14.5329 9.56552C14.3467 10.0149 14.0739 10.4232 13.73 10.7671C13.3861 11.111 12.9778 11.3838 12.5284 11.5699C12.0791 11.7561 11.5975 11.8519 11.1111 11.8519H6.66665C5.68437 11.8519 4.74232 11.4617 4.04774 10.7671C3.35317 10.0725 2.96296 9.13046 2.96296 8.14818Z" fill="#3CD070"/>
<ellipse cx="6.63702" cy="6.40001" rx="0.711109" ry="0.71111" fill="#3CD070"/>
<ellipse cx="11.1407" cy="6.40001" rx="0.711109" ry="0.71111" fill="#3CD070"/>
</svg>
