<svg width="20" height="22" viewBox="0 0 20 22" fill="none" xmlns="http://www.w3.org/2000/svg">
<path d="M18.7407 18.7407C18.3085 18.7407 17.894 18.5691 17.5884 18.2634C17.2828 17.9578 17.1111 17.5433 17.1111 17.1111V16.2963C17.1104 15.7483 16.972 15.2093 16.7086 14.7288C16.4452 14.2483 16.0653 13.8416 15.6037 13.5463C16.3235 13.0184 16.9088 12.3283 17.3123 11.5321C17.7157 10.7358 17.9259 9.85565 17.9259 8.96299V8.14818C17.9157 7.13606 17.6457 6.14353 17.1416 5.26578C17.3899 4.46182 17.4693 3.6152 17.3746 2.77911C17.2799 1.94303 17.0134 1.13556 16.5916 0.407457C16.522 0.282596 16.4199 0.178842 16.2962 0.107138C16.1726 0.0354346 16.0318 -0.00156188 15.8889 5.05403e-05C14.9397 -0.00233573 14.0032 0.217503 13.1543 0.641971C12.3053 1.06644 11.5675 1.68375 11 2.44449H8.55554C7.98796 1.68375 7.25018 1.06644 6.40125 0.641971C5.55231 0.217503 4.61579 -0.00233573 3.66666 5.05403e-05C3.5237 -0.00156188 3.38295 0.0354346 3.25926 0.107138C3.13557 0.178842 3.03352 0.282596 2.96388 0.407457C2.54214 1.13556 2.27556 1.94303 2.18091 2.77911C2.08626 3.6152 2.16558 4.46182 2.41388 5.26578C1.90985 6.14353 1.63979 7.13606 1.62963 8.14818V8.96299C1.62956 9.85565 1.83977 10.7358 2.24322 11.5321C2.64667 12.3283 3.23202 13.0184 3.95184 13.5463C3.49025 13.8416 3.1103 14.2483 2.8469 14.7288C2.5835 15.2093 2.44511 15.7483 2.44444 16.2963V17.1111C2.44444 17.5433 2.27275 17.9578 1.96713 18.2634C1.66152 18.5691 1.24702 18.7407 0.814813 18.7407C0.598711 18.7407 0.39146 18.8266 0.238653 18.9794C0.0858463 19.1322 0 19.3395 0 19.5556C0 19.7717 0.0858463 19.9789 0.238653 20.1317C0.39146 20.2845 0.598711 20.3704 0.814813 20.3704C1.67839 20.3677 2.50584 20.0234 3.11648 19.4128C3.72713 18.8021 4.07138 17.9747 4.07406 17.1111V16.2963C4.07406 15.8641 4.24576 15.4496 4.55137 15.144C4.85699 14.8384 5.27149 14.6667 5.70369 14.6667H6.92591V18.7407C6.92591 19.173 6.75422 19.5875 6.4486 19.8931C6.14299 20.1987 5.72849 20.3704 5.29628 20.3704C5.08018 20.3704 4.87293 20.4562 4.72012 20.609C4.56732 20.7618 4.48147 20.9691 4.48147 21.1852C4.48147 21.4013 4.56732 21.6085 4.72012 21.7613C4.87293 21.9142 5.08018 22 5.29628 22C6.15986 21.9973 6.98731 21.6531 7.59796 21.0424C8.2086 20.4318 8.55285 19.6043 8.55554 18.7407V14.6667H11V18.7407C11.0027 19.6043 11.3469 20.4318 11.9576 21.0424C12.5682 21.6531 13.3956 21.9973 14.2592 22C14.4753 22 14.6826 21.9142 14.8354 21.7613C14.9882 21.6085 15.074 21.4013 15.074 21.1852C15.074 20.9691 14.9882 20.7618 14.8354 20.609C14.6826 20.4562 14.4753 20.3704 14.2592 20.3704C13.827 20.3704 13.4125 20.1987 13.1069 19.8931C12.8013 19.5875 12.6296 19.173 12.6296 18.7407V14.6667H13.8518C14.284 14.6667 14.6985 14.8384 15.0041 15.144C15.3098 15.4496 15.4814 15.8641 15.4814 16.2963V17.1111C15.4841 17.9747 15.8284 18.8021 16.439 19.4128C17.0497 20.0234 17.8771 20.3677 18.7407 20.3704C18.9568 20.3704 19.164 20.2845 19.3169 20.1317C19.4697 19.9789 19.5555 19.7717 19.5555 19.5556C19.5555 19.3395 19.4697 19.1322 19.3169 18.9794C19.164 18.8266 18.9568 18.7407 18.7407 18.7407ZM3.25925 8.96299V8.14818C3.27422 7.33354 3.51773 6.53949 3.96203 5.85652C4.04677 5.74656 4.10162 5.61656 4.12125 5.47913C4.14088 5.34171 4.12463 5.20154 4.07406 5.07226C3.86249 4.52614 3.76078 3.94363 3.77477 3.35813C3.78875 2.77262 3.91815 2.19563 4.15555 1.66023C4.82206 1.72955 5.46425 1.94881 6.03398 2.30159C6.60372 2.65437 7.08623 3.13151 7.44535 3.69726C7.51855 3.8121 7.61936 3.90676 7.73856 3.97259C7.85777 4.03842 7.99158 4.07333 8.12776 4.07412H11.4278C11.5639 4.07333 11.6977 4.03842 11.8169 3.97259C11.9362 3.90676 12.037 3.8121 12.1102 3.69726C12.4693 3.13151 12.9518 2.65437 13.5215 2.30159C14.0913 1.94881 14.7334 1.72955 15.4 1.66023C15.6374 2.19563 15.7668 2.77262 15.7807 3.35813C15.7947 3.94363 15.693 4.52614 15.4814 5.07226C15.4337 5.20204 15.419 5.34164 15.4386 5.47852C15.4581 5.6154 15.5113 5.74529 15.5935 5.85652C16.0378 6.53949 16.2813 7.33354 16.2963 8.14818V8.96299C16.2963 9.49801 16.1909 10.0278 15.9861 10.5221C15.7814 11.0164 15.4813 11.4655 15.103 11.8438C14.7247 12.2221 14.2756 12.5222 13.7813 12.7269C13.287 12.9317 12.7572 13.0371 12.2222 13.0371H7.33332C6.25281 13.0371 5.21655 12.6078 4.45252 11.8438C3.68848 11.0798 3.25925 10.0435 3.25925 8.96299Z" fill="#fff000"/>
<ellipse cx="7.30072" cy="7.03997" rx="0.78222" ry="0.78222" fill="#fff000"/>
<ellipse cx="12.2548" cy="7.03997" rx="0.78222" ry="0.78222" fill="#fff000"/>
</svg>
